<?xml version="1.0" encoding="UTF-8"?>
<!--Generator: Apple Native CoreSVG 175.5-->
<!DOCTYPE svg
PUBLIC "-//W3C//DTD SVG 1.1//EN"
       "http://www.w3.org/Graphics/SVG/1.1/DTD/svg11.dtd">
<svg version="1.1" xmlns="http://www.w3.org/2000/svg" xmlns:xlink="http://www.w3.org/1999/xlink" width="252.393" height="258.545">
 <g>
  <rect height="258.545" opacity="0" width="252.393" x="0" y="0"/>
  <path d="M95.5078 258.545C101.807 258.545 106.787 255.762 110.303 250.342L248.73 32.373C251.367 28.125 252.393 24.9023 252.393 21.5332C252.393 13.4766 247.119 8.20312 239.062 8.20312C233.203 8.20312 229.98 10.1074 226.465 15.6738L94.9219 225.293L26.6602 135.938C22.998 130.811 19.3359 128.76 14.0625 128.76C5.71289 128.76 0 134.473 0 142.529C0 145.898 1.46484 149.707 4.24805 153.223L80.2734 250.049C84.668 255.762 89.209 258.545 95.5078 258.545Z" fill="#ffffff" fill-opacity="0.85"/>
 </g>
</svg>
