<?xml version="1.0" encoding="UTF-8"?>
<!--Generator: Apple Native CoreSVG 175.5-->
<!DOCTYPE svg
PUBLIC "-//W3C//DTD SVG 1.1//EN"
       "http://www.w3.org/Graphics/SVG/1.1/DTD/svg11.dtd">
<svg version="1.1" xmlns="http://www.w3.org/2000/svg" xmlns:xlink="http://www.w3.org/1999/xlink" width="301.465" height="294.58">
 <g>
  <rect height="294.58" opacity="0" width="301.465" x="0" y="0"/>
  <path d="M32.959 287.109L166.992 287.109C188.525 287.109 199.951 275.391 199.951 252.246L199.951 151.318C199.951 128.32 188.525 116.602 166.992 116.602L32.959 116.602C11.4258 116.602 0 128.32 0 151.318L0 252.246C0 275.391 11.4258 287.109 32.959 287.109ZM152.783 128.027L175.928 128.027L175.928 78.6621C175.928 41.6016 199.658 22.1191 227.051 22.1191C254.443 22.1191 278.174 41.6016 278.174 78.6621L278.174 111.182C278.174 119.824 283.301 124.219 289.893 124.219C296.191 124.219 301.465 120.264 301.465 111.182L301.465 81.7383C301.465 26.6602 265.283 0 227.051 0C188.672 0 152.783 26.6602 152.783 81.7383Z" fill="#ffffff" fill-opacity="0.85"/>
 </g>
</svg>
