<?xml version="1.0" encoding="UTF-8"?>
<!--Generator: Apple Native CoreSVG 175.5-->
<!DOCTYPE svg
PUBLIC "-//W3C//DTD SVG 1.1//EN"
       "http://www.w3.org/Graphics/SVG/1.1/DTD/svg11.dtd">
<svg version="1.1" xmlns="http://www.w3.org/2000/svg" xmlns:xlink="http://www.w3.org/1999/xlink" width="199.951" height="295.166">
 <g>
  <rect height="295.166" opacity="0" width="199.951" x="0" y="0"/>
  <path d="M32.959 287.402L166.992 287.402C188.525 287.402 199.951 275.684 199.951 252.539L199.951 151.611C199.951 128.467 188.525 116.895 166.992 116.895L32.959 116.895C11.4258 116.895 0 128.467 0 151.611L0 252.539C0 275.684 11.4258 287.402 32.959 287.402ZM25.6348 128.174L48.9258 128.174L48.9258 78.6621C48.9258 41.748 72.5098 22.1191 99.9023 22.1191C127.295 22.1191 151.172 41.748 151.172 78.6621L151.172 128.174L174.316 128.174L174.316 81.8848C174.316 26.8066 138.281 0 99.9023 0C61.6699 0 25.6348 26.8066 25.6348 81.8848Z" fill="#ffffff" fill-opacity="0.85"/>
 </g>
</svg>
