<?xml version="1.0" encoding="UTF-8"?>
<!--Generator: Apple Native CoreSVG 175.5-->
<!DOCTYPE svg
PUBLIC "-//W3C//DTD SVG 1.1//EN"
       "http://www.w3.org/Graphics/SVG/1.1/DTD/svg11.dtd">
<svg version="1.1" xmlns="http://www.w3.org/2000/svg" xmlns:xlink="http://www.w3.org/1999/xlink" width="283.74" height="355.518">
 <g>
  <rect height="355.518" opacity="0" width="283.74" x="0" y="0"/>
  <path d="M76.0254 62.8418L102.539 62.8418L102.539 37.207C102.539 29.8828 107.666 24.9023 115.576 24.9023L168.018 24.9023C175.928 24.9023 181.055 29.8828 181.055 37.207L181.055 62.8418L207.422 62.8418L207.422 35.7422C207.422 13.623 192.92 0 169.482 0L113.965 0C90.5273 0 76.0254 13.623 76.0254 35.7422ZM10.9863 80.2734L272.754 80.2734C278.76 80.2734 283.74 75.1465 283.74 69.1406C283.74 63.1348 278.76 58.1543 272.754 58.1543L10.9863 58.1543C5.12695 58.1543 0 63.1348 0 69.1406C0 75.293 5.12695 80.2734 10.9863 80.2734ZM250.928 77.1973L32.959 77.1973L42.4805 294.287C43.2129 312.451 54.1992 322.559 72.2168 322.559L211.523 322.559C229.688 322.559 240.674 312.451 241.406 294.287ZM95.5078 280.664C90.2344 280.664 86.5723 277.295 86.4258 272.021L81.8848 112.5C81.7383 107.373 85.4004 103.857 91.1133 103.857C96.2402 103.857 100.049 107.227 100.195 112.354L104.59 272.021C104.736 277.148 101.074 280.664 95.5078 280.664ZM141.943 280.664C136.377 280.664 132.422 277.148 132.422 272.021L132.422 112.5C132.422 107.373 136.377 103.857 141.943 103.857C147.51 103.857 151.318 107.373 151.318 112.5L151.318 272.021C151.318 277.148 147.51 280.664 141.943 280.664ZM188.232 280.664C182.666 280.664 179.004 277.148 179.15 272.021L183.545 112.5C183.691 107.227 187.5 103.857 192.627 103.857C198.193 103.857 202.002 107.373 201.855 112.5L197.314 272.021C197.168 277.295 193.506 280.664 188.232 280.664Z" fill="#ffffff" fill-opacity="0.85"/>
 </g>
</svg>
